<svg width="63" height="63" viewBox="0 0 63 63" fill="none" xmlns="http://www.w3.org/2000/svg">
<circle cx="31.5" cy="31.5" r="31.5" fill="#FFCA00"/>
<path d="M24.5 43.75C25.4283 43.75 26.3185 43.3812 26.9749 42.7249C27.6313 42.0685 28 41.1783 28 40.25C28 39.3217 27.6313 38.4315 26.9749 37.7751C26.3185 37.1187 25.4283 36.75 24.5 36.75C23.5717 36.75 22.6815 37.1187 22.0251 37.7751C21.3687 38.4315 21 39.3217 21 40.25C21 41.1783 21.3687 42.0685 22.0251 42.7249C22.6815 43.3812 23.5717 43.75 24.5 43.75ZM42 43.75C42.9283 43.75 43.8185 43.3812 44.4749 42.7249C45.1313 42.0685 45.5 41.1783 45.5 40.25C45.5 39.3217 45.1313 38.4315 44.4749 37.7751C43.8185 37.1187 42.9283 36.75 42 36.75C41.0717 36.75 40.1815 37.1187 39.5251 37.7751C38.8687 38.4315 38.5 39.3217 38.5 40.25C38.5 41.1783 38.8687 42.0685 39.5251 42.7249C40.1815 43.3812 41.0717 43.75 42 43.75Z" stroke="black" stroke-width="2" stroke-miterlimit="1.5" stroke-linecap="round" stroke-linejoin="round"/>
<path d="M28.0874 40.25H36.7499V22.05C36.7499 21.7715 36.6393 21.5045 36.4423 21.3075C36.2454 21.1106 35.9784 21 35.6999 21H12.2499M20.3874 40.25H16.7999C16.662 40.25 16.5255 40.2228 16.3981 40.1701C16.2707 40.1173 16.1549 40.04 16.0574 39.9425C15.9599 39.845 15.8826 39.7292 15.8298 39.6018C15.777 39.4744 15.7499 39.3379 15.7499 39.2V30.625" stroke="black" stroke-width="2" stroke-linecap="round"/>
<path d="M14 26.25H21" stroke="black" stroke-width="2" stroke-linecap="round" stroke-linejoin="round"/>
<path d="M36.75 26.25H46.5675C46.7705 26.25 46.9691 26.3089 47.1393 26.4195C47.3095 26.5301 47.444 26.6876 47.5265 26.873L50.659 33.922C50.7187 34.0558 50.7497 34.2007 50.75 34.3472V39.2C50.75 39.3379 50.7228 39.4744 50.6701 39.6018C50.6173 39.7292 50.54 39.845 50.4425 39.9425C50.345 40.04 50.2292 40.1173 50.1018 40.1701C49.9744 40.2228 49.8379 40.25 49.7 40.25H46.375M36.75 40.25H38.5" stroke="black" stroke-width="2" stroke-linecap="round"/>
</svg>
